<?xml version="1.0" encoding="UTF-8"?>
<svg id="Layer_2" xmlns="http://www.w3.org/2000/svg" viewBox="0 0 562.74 804.04">
  <defs>
    <style>
      .cls-1 {
        stroke-width: 24px;
      }

      .cls-1, .cls-2 {
        fill: none;
        stroke: #000;
        stroke-miterlimit: 10;
      }

      .cls-2 {
        stroke-width: 40px;
      }
    </style>
  </defs>
  <g id="Layer_1-2" data-name="Layer_1">
    <path class="cls-2" d="M494.38,265.04H201.86c-26.71,0-48.37,21.65-48.37,48.37v48.36c-76.12,15.11-133.49,82.26-133.49,162.81s57.38,147.7,133.49,162.81v48.28c0,26.71,21.65,48.37,48.37,48.37h292.52c26.71,0,48.37-21.65,48.37-48.37v-422.27c0-26.71-21.65-48.37-48.37-48.37ZM62.27,524.58c0-57.08,38.66-105.13,91.22-119.41v238.81c-52.56-14.27-91.22-62.32-91.22-119.41Z"/>
    <path class="cls-1" d="M419.44,9.37l3.53,2.83,7.52,8.46c3.11,3.5,6.07,7.14,8.83,10.92,6.67,9.14,7.87,13.16,10.49,27.69,1.47,8.16,2.04,16.47,1.7,24.8-.62,14.83-5.26,29.21-13.14,41.79h0c-5.13,8.19-9.35,16.88-12.59,25.91-7.32,20.38-1.28,43.17,14.86,57.6h0"/>
    <path class="cls-1" d="M245.77,9.51l3.53,2.83,7.52,8.46c3.11,3.5,6.07,7.14,8.83,10.92,6.67,9.14,7.87,13.16,10.49,27.69,1.47,8.16,2.04,16.47,1.7,24.8-.62,14.83-5.26,29.21-13.14,41.79h0c-5.13,8.19-9.35,16.88-12.59,25.91-7.32,20.38-1.28,43.17,14.86,57.6h0"/>
    <path class="cls-1" d="M338.77,9.51l3.53,2.83,7.52,8.46c3.11,3.5,6.07,7.14,8.83,10.92,6.67,9.14,7.87,13.16,10.49,27.69,1.47,8.16,2.04,16.47,1.7,24.8-.62,14.83-5.26,29.21-13.14,41.79h0c-5.13,8.19-9.35,16.88-12.59,25.91-7.32,20.38-1.28,43.17,14.86,57.6h0"/>
  </g>
</svg>